<svg xmlns="http://www.w3.org/2000/svg" width="339.6" height="35" viewBox="0 0 339.6 35"><rect class="svg__rect" x="0" y="0" width="205.31" height="35" fill="#31C4F3"/><rect class="svg__rect" x="203.31" y="0" width="136.29" height="35" fill="#389AD5"/><path class="svg__text" d="M15.70 22L14.22 22L14.22 13.47L15.70 13.47L19.51 19.54L19.51 13.47L20.98 13.47L20.98 22L19.50 22L15.70 15.95L15.70 22ZM25.46 18.00L25.46 18.00L25.46 17.52Q25.46 16.28 25.90 15.32Q26.34 14.37 27.15 13.86Q27.95 13.35 28.99 13.35Q30.04 13.35 30.84 13.85Q31.65 14.35 32.09 15.29Q32.53 16.23 32.53 17.48L32.53 17.48L32.53 17.96Q32.53 19.21 32.10 20.16Q31.67 21.10 30.86 21.61Q30.06 22.12 29.01 22.12L29.01 22.12Q27.97 22.12 27.16 21.61Q26.35 21.10 25.90 20.17Q25.46 19.23 25.46 18.00ZM26.94 17.46L26.94 17.96Q26.94 19.36 27.49 20.13Q28.03 20.90 29.01 20.90L29.01 20.90Q29.99 20.90 30.52 20.15Q31.05 19.40 31.05 17.96L31.05 17.96L31.05 17.51Q31.05 16.09 30.52 15.34Q29.98 14.58 28.99 14.58L28.99 14.58Q28.03 14.58 27.49 15.33Q26.95 16.09 26.94 17.46L26.94 17.46ZM39.45 22L37.00 22L37.00 13.47L39.52 13.47Q40.65 13.47 41.52 13.97Q42.40 14.48 42.88 15.40Q43.36 16.33 43.36 17.52L43.36 17.52L43.36 17.95Q43.36 19.16 42.88 20.08Q42.39 21.00 41.50 21.50Q40.61 22 39.45 22L39.45 22ZM38.48 14.66L38.48 20.82L39.45 20.82Q40.61 20.82 41.24 20.09Q41.86 19.36 41.87 17.99L41.87 17.99L41.87 17.52Q41.87 16.13 41.27 15.40Q40.67 14.66 39.52 14.66L39.52 14.66L38.48 14.66ZM47.69 19.16L47.69 19.16L47.69 13.47L49.17 13.47L49.17 19.18Q49.17 20.03 49.60 20.48Q50.04 20.93 50.88 20.93L50.88 20.93Q52.59 20.93 52.59 19.13L52.59 19.13L52.59 13.47L54.07 13.47L54.07 19.17Q54.07 20.53 53.20 21.32Q52.33 22.12 50.88 22.12L50.88 22.12Q49.41 22.12 48.55 21.33Q47.69 20.55 47.69 19.16ZM63.99 22L58.64 22L58.64 13.47L60.12 13.47L60.12 20.82L63.99 20.82L63.99 22ZM73.70 22L68.12 22L68.12 13.47L73.65 13.47L73.65 14.66L69.60 14.66L69.60 17.02L73.10 17.02L73.10 18.19L69.60 18.19L69.60 20.82L73.70 20.82L73.70 22ZM85.43 22L83.96 22L83.96 13.47L85.43 13.47L85.43 22ZM91.72 22L90.24 22L90.24 13.47L91.72 13.47L95.54 19.54L95.54 13.47L97.01 13.47L97.01 22L95.53 22L91.72 15.95L91.72 22ZM103.23 22L101.75 22L101.75 13.47L107.17 13.47L107.17 14.66L103.23 14.66L103.23 17.20L106.67 17.20L106.67 18.38L103.23 18.38L103.23 22ZM111.06 18.00L111.06 18.00L111.06 17.52Q111.06 16.28 111.50 15.32Q111.95 14.37 112.75 13.86Q113.56 13.35 114.60 13.35Q115.64 13.35 116.45 13.85Q117.25 14.35 117.69 15.29Q118.13 16.23 118.14 17.48L118.14 17.48L118.14 17.96Q118.14 19.21 117.71 20.16Q117.27 21.10 116.47 21.61Q115.66 22.12 114.61 22.12L114.61 22.12Q113.57 22.12 112.76 21.61Q111.95 21.10 111.51 20.17Q111.07 19.23 111.06 18.00ZM112.54 17.46L112.54 17.96Q112.54 19.36 113.09 20.13Q113.64 20.90 114.61 20.90L114.61 20.90Q115.60 20.90 116.13 20.15Q116.66 19.40 116.66 17.96L116.66 17.96L116.66 17.51Q116.66 16.09 116.12 15.34Q115.58 14.58 114.60 14.58L114.60 14.58Q113.64 14.58 113.10 15.33Q112.56 16.09 112.54 17.46L112.54 17.46ZM124.09 22L122.60 22L122.60 13.47L125.60 13.47Q127.08 13.47 127.88 14.13Q128.69 14.79 128.69 16.05L128.69 16.05Q128.69 16.90 128.27 17.48Q127.86 18.06 127.12 18.37L127.12 18.37L129.04 21.92L129.04 22L127.45 22L125.74 18.71L124.09 18.71L124.09 22ZM124.09 14.66L124.09 17.52L125.61 17.52Q126.36 17.52 126.78 17.15Q127.20 16.77 127.20 16.11L127.20 16.11Q127.20 15.43 126.81 15.05Q126.42 14.68 125.65 14.66L125.65 14.66L124.09 14.66ZM134.56 22L133.08 22L133.08 13.47L135.00 13.47L137.46 20.01L139.92 13.47L141.83 13.47L141.83 22L140.36 22L140.36 19.19L140.50 15.43L137.98 22L136.92 22L134.41 15.43L134.56 19.19L134.56 22ZM147.35 22L145.81 22L149.04 13.47L150.37 13.47L153.59 22L152.05 22L151.35 20.01L148.05 20.01L147.35 22ZM149.70 15.28L148.46 18.82L150.93 18.82L149.70 15.28ZM159.23 14.66L156.59 14.66L156.59 13.47L163.36 13.47L163.36 14.66L160.70 14.66L160.70 22L159.23 22L159.23 14.66ZM168.68 22L167.21 22L167.21 13.47L168.68 13.47L168.68 22ZM173.22 18.00L173.22 18.00L173.22 17.52Q173.22 16.28 173.67 15.32Q174.11 14.37 174.91 13.86Q175.72 13.35 176.76 13.35Q177.81 13.35 178.61 13.85Q179.42 14.35 179.86 15.29Q180.30 16.23 180.30 17.48L180.30 17.48L180.30 17.96Q180.30 19.21 179.87 20.16Q179.43 21.10 178.63 21.61Q177.82 22.12 176.77 22.12L176.77 22.12Q175.74 22.12 174.93 21.61Q174.11 21.10 173.67 20.17Q173.23 19.23 173.22 18.00ZM174.71 17.46L174.71 17.96Q174.71 19.36 175.25 20.13Q175.80 20.90 176.77 20.90L176.77 20.90Q177.76 20.90 178.29 20.15Q178.82 19.40 178.82 17.96L178.82 17.96L178.82 17.51Q178.82 16.09 178.28 15.34Q177.75 14.58 176.76 14.58L176.76 14.58Q175.80 14.58 175.26 15.33Q174.72 16.09 174.71 17.46L174.71 17.46ZM186.25 22L184.77 22L184.77 13.47L186.25 13.47L190.06 19.54L190.06 13.47L191.53 13.47L191.53 22L190.05 22L186.25 15.95L186.25 22Z" fill="#FFFFFF"/><path class="svg__text" d="M219.29 15.48L216.71 15.48L216.71 13.60L224.23 13.60L224.23 15.48L221.66 15.48L221.66 22L219.29 22L219.29 15.48ZM228.17 17.80L228.17 17.80Q228.17 16.55 228.78 15.55Q229.38 14.56 230.44 14.00Q231.51 13.43 232.84 13.43L232.84 13.43Q234.17 13.43 235.23 14.00Q236.29 14.56 236.90 15.55Q237.51 16.55 237.51 17.80L237.51 17.80Q237.51 19.05 236.90 20.04Q236.29 21.04 235.23 21.60Q234.17 22.17 232.84 22.17L232.84 22.17Q231.51 22.17 230.44 21.60Q229.38 21.04 228.78 20.04Q228.17 19.05 228.17 17.80ZM230.57 17.80L230.57 17.80Q230.57 18.51 230.87 19.05Q231.17 19.60 231.69 19.90Q232.20 20.20 232.84 20.20L232.84 20.20Q233.48 20.20 233.99 19.90Q234.51 19.60 234.81 19.05Q235.11 18.51 235.11 17.80L235.11 17.80Q235.11 17.09 234.81 16.54Q234.51 16 233.99 15.70Q233.48 15.40 232.84 15.40L232.84 15.40Q232.20 15.40 231.69 15.70Q231.17 16 230.87 16.54Q230.57 17.09 230.57 17.80ZM251.00 15.48L248.42 15.48L248.42 13.60L255.94 13.60L255.94 15.48L253.37 15.48L253.37 22L251.00 22L251.00 15.48ZM262.16 22L259.45 22L262.51 17.75L259.58 13.60L262.26 13.60L263.94 16.02L265.59 13.60L268.16 13.60L265.23 17.66L268.36 22L265.62 22L263.88 19.40L262.16 22ZM274.43 15.48L271.85 15.48L271.85 13.60L279.37 13.60L279.37 15.48L276.81 15.48L276.81 22L274.43 22L274.43 15.48ZM293.10 22L290.72 22L290.72 13.60L297.31 13.60L297.31 15.44L293.10 15.44L293.10 17.28L296.80 17.28L296.80 19.12L293.10 19.12L293.10 22ZM304.28 22L301.90 22L301.90 13.60L304.28 13.60L304.28 22ZM315.84 22L309.45 22L309.45 13.60L311.83 13.60L311.83 20.11L315.84 20.11L315.84 22ZM327.00 22L320.26 22L320.26 13.60L326.85 13.60L326.85 15.44L322.62 15.44L322.62 16.85L326.35 16.85L326.35 18.63L322.62 18.63L322.62 20.17L327.00 20.17L327.00 22Z" fill="#FFFFFF" x="216.31"/></svg>