<svg xmlns="http://www.w3.org/2000/svg" width="497.38" height="35" viewBox="0 0 497.38 35"><rect class="svg__rect" x="0" y="0" width="276.39" height="35" fill="#31C4F3"/><rect class="svg__rect" x="274.39" y="0" width="222.99" height="35" fill="#389AD5"/><path class="svg__text" d="M15.70 22L14.22 22L14.22 13.47L17.48 13.47Q18.91 13.47 19.75 14.21Q20.59 14.96 20.59 16.18L20.59 16.18Q20.59 17.44 19.77 18.13Q18.95 18.83 17.46 18.83L17.46 18.83L15.70 18.83L15.70 22ZM15.70 14.66L15.70 17.64L17.48 17.64Q18.27 17.64 18.69 17.27Q19.10 16.90 19.10 16.19L19.10 16.19Q19.10 15.50 18.68 15.09Q18.26 14.68 17.52 14.66L17.52 14.66L15.70 14.66ZM25.65 22L24.11 22L27.34 13.47L28.67 13.47L31.89 22L30.35 22L29.65 20.01L26.35 20.01L25.65 22ZM28.00 15.28L26.76 18.82L29.23 18.82L28.00 15.28ZM37.33 22L35.85 22L35.85 13.47L38.85 13.47Q40.33 13.47 41.13 14.13Q41.93 14.79 41.93 16.05L41.93 16.05Q41.93 16.90 41.52 17.48Q41.11 18.06 40.37 18.37L40.37 18.37L42.28 21.92L42.28 22L40.70 22L38.98 18.71L37.33 18.71L37.33 22ZM37.33 14.66L37.33 17.52L38.86 17.52Q39.61 17.52 40.03 17.15Q40.45 16.77 40.45 16.11L40.45 16.11Q40.45 15.43 40.06 15.05Q39.67 14.68 38.90 14.66L38.90 14.66L37.33 14.66ZM48.01 14.66L45.37 14.66L45.37 13.47L52.14 13.47L52.14 14.66L49.48 14.66L49.48 22L48.01 22L48.01 14.66ZM57.46 22L55.98 22L55.98 13.47L57.46 13.47L57.46 22ZM62.00 18.19L62.00 18.19L62.00 17.39Q62.00 16.19 62.43 15.27Q62.86 14.35 63.66 13.85Q64.46 13.35 65.50 13.35L65.50 13.35Q66.92 13.35 67.78 14.12Q68.64 14.89 68.78 16.29L68.78 16.29L67.30 16.29Q67.20 15.37 66.77 14.96Q66.34 14.55 65.50 14.55L65.50 14.55Q64.54 14.55 64.02 15.26Q63.50 15.96 63.49 17.33L63.49 17.33L63.49 18.09Q63.49 19.47 63.98 20.20Q64.48 20.92 65.43 20.92L65.43 20.92Q66.31 20.92 66.75 20.53Q67.19 20.14 67.30 19.22L67.30 19.22L68.78 19.22Q68.65 20.59 67.77 21.35Q66.89 22.12 65.43 22.12L65.43 22.12Q64.41 22.12 63.64 21.63Q62.86 21.15 62.44 20.26Q62.02 19.37 62.00 18.19ZM74.66 22L73.18 22L73.18 13.47L74.66 13.47L74.66 22ZM80.95 22L79.47 22L79.47 13.47L82.73 13.47Q84.16 13.47 85.00 14.21Q85.84 14.96 85.84 16.18L85.84 16.18Q85.84 17.44 85.02 18.13Q84.20 18.83 82.71 18.83L82.71 18.83L80.95 18.83L80.95 22ZM80.95 14.66L80.95 17.64L82.73 17.64Q83.52 17.64 83.94 17.27Q84.35 16.90 84.35 16.19L84.35 16.19Q84.35 15.50 83.93 15.09Q83.51 14.68 82.77 14.66L82.77 14.66L80.95 14.66ZM90.90 22L89.36 22L92.59 13.47L93.92 13.47L97.14 22L95.60 22L94.90 20.01L91.60 20.01L90.90 22ZM93.25 15.28L92.01 18.82L94.48 18.82L93.25 15.28ZM102.58 22L101.10 22L101.10 13.47L102.58 13.47L106.40 19.54L106.40 13.47L107.87 13.47L107.87 22L106.39 22L102.58 15.95L102.58 22ZM114.29 14.66L111.65 14.66L111.65 13.47L118.42 13.47L118.42 14.66L115.76 14.66L115.76 22L114.29 22L114.29 14.66ZM127.88 18.19L127.88 18.19L127.88 17.39Q127.88 16.19 128.31 15.27Q128.74 14.35 129.54 13.85Q130.34 13.35 131.39 13.35L131.39 13.35Q132.80 13.35 133.66 14.12Q134.52 14.89 134.66 16.29L134.66 16.29L133.19 16.29Q133.08 15.37 132.65 14.96Q132.22 14.55 131.39 14.55L131.39 14.55Q130.42 14.55 129.90 15.26Q129.38 15.96 129.37 17.33L129.37 17.33L129.37 18.09Q129.37 19.47 129.87 20.20Q130.36 20.92 131.32 20.92L131.32 20.92Q132.19 20.92 132.63 20.53Q133.07 20.14 133.19 19.22L133.19 19.22L134.66 19.22Q134.53 20.59 133.65 21.35Q132.78 22.12 131.32 22.12L131.32 22.12Q130.30 22.12 129.52 21.63Q128.74 21.15 128.32 20.26Q127.90 19.37 127.88 18.19ZM140.46 22L138.97 22L138.97 13.47L140.46 13.47L140.46 17.02L144.27 17.02L144.27 13.47L145.75 13.47L145.75 22L144.27 22L144.27 18.21L140.46 18.21L140.46 22ZM151.27 22L149.73 22L152.95 13.47L154.28 13.47L157.51 22L155.96 22L155.26 20.01L151.96 20.01L151.27 22ZM153.61 15.28L152.38 18.82L154.85 18.82L153.61 15.28ZM162.95 22L161.46 22L161.46 13.47L164.46 13.47Q165.94 13.47 166.74 14.13Q167.55 14.79 167.55 16.05L167.55 16.05Q167.55 16.90 167.13 17.48Q166.72 18.06 165.98 18.37L165.98 18.37L167.90 21.92L167.90 22L166.31 22L164.60 18.71L162.95 18.71L162.95 22ZM162.95 14.66L162.95 17.52L164.47 17.52Q165.22 17.52 165.64 17.15Q166.06 16.77 166.06 16.11L166.06 16.11Q166.06 15.43 165.67 15.05Q165.28 14.68 164.51 14.66L164.51 14.66L162.95 14.66ZM172.72 22L171.18 22L174.40 13.47L175.73 13.47L178.96 22L177.41 22L176.72 20.01L173.41 20.01L172.72 22ZM175.06 15.28L173.83 18.82L176.30 18.82L175.06 15.28ZM182.64 18.19L182.64 18.19L182.64 17.39Q182.64 16.19 183.07 15.27Q183.50 14.35 184.30 13.85Q185.10 13.35 186.15 13.35L186.15 13.35Q187.56 13.35 188.42 14.12Q189.28 14.89 189.42 16.29L189.42 16.29L187.95 16.29Q187.84 15.37 187.41 14.96Q186.98 14.55 186.15 14.55L186.15 14.55Q185.18 14.55 184.66 15.26Q184.14 15.96 184.13 17.33L184.13 17.33L184.13 18.09Q184.13 19.47 184.63 20.20Q185.12 20.92 186.08 20.92L186.08 20.92Q186.95 20.92 187.39 20.53Q187.83 20.14 187.95 19.22L187.95 19.22L189.42 19.22Q189.30 20.59 188.42 21.35Q187.54 22.12 186.08 22.12L186.08 22.12Q185.06 22.12 184.28 21.63Q183.51 21.15 183.08 20.26Q182.66 19.37 182.64 18.19ZM195.42 14.66L192.78 14.66L192.78 13.47L199.55 13.47L199.55 14.66L196.89 14.66L196.89 22L195.42 22L195.42 14.66ZM208.88 22L203.31 22L203.31 13.47L208.84 13.47L208.84 14.66L204.79 14.66L204.79 17.02L208.29 17.02L208.29 18.19L204.79 18.19L204.79 20.82L208.88 20.82L208.88 22ZM214.56 22L213.08 22L213.08 13.47L216.08 13.47Q217.56 13.47 218.36 14.13Q219.16 14.79 219.16 16.05L219.16 16.05Q219.16 16.90 218.75 17.48Q218.33 18.06 217.60 18.37L217.60 18.37L219.51 21.92L219.51 22L217.92 22L216.21 18.71L214.56 18.71L214.56 22ZM214.56 14.66L214.56 17.52L216.08 17.52Q216.83 17.52 217.26 17.15Q217.68 16.77 217.68 16.11L217.68 16.11Q217.68 15.43 217.29 15.05Q216.90 14.68 216.13 14.66L216.13 14.66L214.56 14.66ZM225.12 22L223.64 22L223.64 13.47L225.12 13.47L225.12 22ZM229.50 19.42L229.50 19.42L230.98 19.42Q230.98 20.15 231.46 20.55Q231.94 20.95 232.84 20.95L232.84 20.95Q233.61 20.95 234.00 20.63Q234.39 20.32 234.39 19.80L234.39 19.80Q234.39 19.24 233.99 18.94Q233.60 18.63 232.57 18.32Q231.54 18.01 230.93 17.63L230.93 17.63Q229.76 16.90 229.76 15.72L229.76 15.72Q229.76 14.69 230.60 14.02Q231.44 13.35 232.78 13.35L232.78 13.35Q233.67 13.35 234.37 13.68Q235.07 14.01 235.47 14.61Q235.87 15.22 235.87 15.96L235.87 15.96L234.39 15.96Q234.39 15.29 233.97 14.91Q233.55 14.54 232.77 14.54L232.77 14.54Q232.05 14.54 231.64 14.85Q231.24 15.16 231.24 15.71L231.24 15.71Q231.24 16.18 231.68 16.50Q232.11 16.81 233.11 17.10Q234.10 17.40 234.71 17.78Q235.31 18.16 235.59 18.65Q235.87 19.13 235.87 19.79L235.87 19.79Q235.87 20.86 235.05 21.49Q234.24 22.12 232.84 22.12L232.84 22.12Q231.91 22.12 231.13 21.77Q230.36 21.43 229.93 20.83Q229.50 20.22 229.50 19.42ZM241.84 14.66L239.21 14.66L239.21 13.47L245.97 13.47L245.97 14.66L243.31 14.66L243.31 22L241.84 22L241.84 14.66ZM251.29 22L249.82 22L249.82 13.47L251.29 13.47L251.29 22ZM255.83 18.19L255.83 18.19L255.83 17.39Q255.83 16.19 256.26 15.27Q256.69 14.35 257.49 13.85Q258.29 13.35 259.34 13.35L259.34 13.35Q260.75 13.35 261.61 14.12Q262.47 14.89 262.61 16.29L262.61 16.29L261.14 16.29Q261.03 15.37 260.60 14.96Q260.17 14.55 259.34 14.55L259.34 14.55Q258.37 14.55 257.85 15.26Q257.33 15.96 257.32 17.33L257.32 17.33L257.32 18.09Q257.32 19.47 257.82 20.20Q258.31 20.92 259.27 20.92L259.27 20.92Q260.14 20.92 260.58 20.53Q261.02 20.14 261.14 19.22L261.14 19.22L262.61 19.22Q262.48 20.59 261.61 21.35Q260.73 22.12 259.27 22.12L259.27 22.12Q258.25 22.12 257.47 21.63Q256.70 21.15 256.27 20.26Q255.85 19.37 255.83 18.19Z" fill="#FFFFFF"/><path class="svg__text" d="M287.99 21.24L287.99 21.24L288.77 19.49Q289.33 19.86 290.08 20.09Q290.82 20.32 291.54 20.32L291.54 20.32Q292.91 20.32 292.91 19.64L292.91 19.64Q292.91 19.28 292.52 19.11Q292.13 18.93 291.27 18.74L291.27 18.74Q290.32 18.53 289.68 18.30Q289.05 18.06 288.59 17.55Q288.14 17.03 288.14 16.16L288.14 16.16Q288.14 15.39 288.56 14.77Q288.98 14.15 289.81 13.79Q290.65 13.43 291.85 13.43L291.85 13.43Q292.68 13.43 293.49 13.62Q294.29 13.80 294.91 14.17L294.91 14.17L294.17 15.93Q292.97 15.28 291.84 15.28L291.84 15.28Q291.13 15.28 290.81 15.49Q290.49 15.70 290.49 16.04L290.49 16.04Q290.49 16.37 290.87 16.54Q291.26 16.71 292.11 16.89L292.11 16.89Q293.07 17.10 293.70 17.33Q294.33 17.56 294.79 18.07Q295.25 18.58 295.25 19.46L295.25 19.46Q295.25 20.21 294.83 20.83Q294.41 21.44 293.57 21.80Q292.73 22.17 291.53 22.17L291.53 22.17Q290.51 22.17 289.55 21.92Q288.59 21.67 287.99 21.24ZM299.76 18.26L299.76 18.26L299.76 13.60L302.14 13.60L302.14 18.19Q302.14 20.20 303.73 20.20L303.73 20.20Q305.31 20.20 305.31 18.19L305.31 18.19L305.31 13.60L307.66 13.60L307.66 18.26Q307.66 20.13 306.62 21.15Q305.58 22.17 303.71 22.17L303.71 22.17Q301.83 22.17 300.79 21.15Q299.76 20.13 299.76 18.26ZM317.28 22L312.74 22L312.74 13.60L317.04 13.60Q318.65 13.60 319.49 14.19Q320.33 14.79 320.33 15.79L320.33 15.79Q320.33 16.39 320.03 16.87Q319.74 17.34 319.20 17.62L319.20 17.62Q319.92 17.87 320.33 18.41Q320.73 18.94 320.73 19.70L320.73 19.70Q320.73 20.80 319.85 21.40Q318.96 22 317.28 22L317.28 22ZM315.10 18.58L315.10 20.28L317.09 20.28Q318.34 20.28 318.34 19.43L318.34 19.43Q318.34 18.58 317.09 18.58L317.09 18.58L315.10 18.58ZM315.10 15.31L315.10 16.94L316.73 16.94Q317.93 16.94 317.93 16.12L317.93 16.12Q317.93 15.31 316.73 15.31L316.73 15.31L315.10 15.31ZM329.42 22L325.45 22L325.45 13.60L329.42 13.60Q330.81 13.60 331.87 14.12Q332.94 14.63 333.53 15.58Q334.12 16.53 334.12 17.80L334.12 17.80Q334.12 19.07 333.53 20.02Q332.94 20.97 331.87 21.48Q330.81 22 329.42 22L329.42 22ZM327.83 15.50L327.83 20.10L329.33 20.10Q330.41 20.10 331.06 19.49Q331.71 18.88 331.71 17.80L331.71 17.80Q331.71 16.72 331.06 16.11Q330.41 15.50 329.33 15.50L329.33 15.50L327.83 15.50ZM341.22 22L338.85 22L338.85 13.60L341.22 13.60L341.22 22ZM348.98 22L345.39 13.60L347.96 13.60L350.24 19.07L352.57 13.60L354.92 13.60L351.32 22L348.98 22ZM361.45 22L359.07 22L359.07 13.60L361.45 13.60L361.45 22ZM370.60 22L366.62 22L366.62 13.60L370.60 13.60Q371.98 13.60 373.05 14.12Q374.11 14.63 374.70 15.58Q375.29 16.53 375.29 17.80L375.29 17.80Q375.29 19.07 374.70 20.02Q374.11 20.97 373.05 21.48Q371.98 22 370.60 22L370.60 22ZM369.00 15.50L369.00 20.10L370.50 20.10Q371.58 20.10 372.24 19.49Q372.89 18.88 372.89 17.80L372.89 17.80Q372.89 16.72 372.24 16.11Q371.58 15.50 370.50 15.50L370.50 15.50L369.00 15.50ZM386.76 22L380.02 22L380.02 13.60L386.61 13.60L386.61 15.44L382.37 15.44L382.37 16.85L386.11 16.85L386.11 18.63L382.37 18.63L382.37 20.17L386.76 20.17L386.76 22ZM400.33 15.48L397.75 15.48L397.75 13.60L405.27 13.60L405.27 15.48L402.71 15.48L402.71 22L400.33 22L400.33 15.48ZM409.22 17.80L409.22 17.80Q409.22 16.55 409.82 15.55Q410.42 14.56 411.49 14.00Q412.55 13.43 413.88 13.43L413.88 13.43Q415.21 13.43 416.27 14.00Q417.34 14.56 417.94 15.55Q418.55 16.55 418.55 17.80L418.55 17.80Q418.55 19.05 417.94 20.04Q417.34 21.04 416.28 21.60Q415.22 22.17 413.88 22.17L413.88 22.17Q412.55 22.17 411.49 21.60Q410.42 21.04 409.82 20.04Q409.22 19.05 409.22 17.80ZM411.61 17.80L411.61 17.80Q411.61 18.51 411.91 19.05Q412.22 19.60 412.73 19.90Q413.25 20.20 413.88 20.20L413.88 20.20Q414.52 20.20 415.03 19.90Q415.55 19.60 415.85 19.05Q416.15 18.51 416.15 17.80L416.15 17.80Q416.15 17.09 415.85 16.54Q415.55 16 415.03 15.70Q414.52 15.40 413.88 15.40L413.88 15.40Q413.24 15.40 412.73 15.70Q412.22 16 411.91 16.54Q411.61 17.09 411.61 17.80ZM429.82 17.80L429.82 17.80Q429.82 16.54 430.42 15.54Q431.02 14.55 432.07 13.99Q433.12 13.43 434.44 13.43L434.44 13.43Q435.60 13.43 436.52 13.84Q437.44 14.25 438.06 15.02L438.06 15.02L436.54 16.39Q435.73 15.40 434.56 15.40L434.56 15.40Q433.88 15.40 433.35 15.70Q432.81 16 432.52 16.54Q432.22 17.09 432.22 17.80L432.22 17.80Q432.22 18.51 432.52 19.05Q432.81 19.60 433.35 19.90Q433.88 20.20 434.56 20.20L434.56 20.20Q435.73 20.20 436.54 19.22L436.54 19.22L438.06 20.58Q437.45 21.35 436.52 21.76Q435.60 22.17 434.44 22.17L434.44 22.17Q433.12 22.17 432.07 21.61Q431.02 21.05 430.42 20.05Q429.82 19.06 429.82 17.80ZM444.01 22L441.58 22L445.29 13.60L447.64 13.60L451.35 22L448.88 22L448.22 20.37L444.67 20.37L444.01 22ZM446.45 15.93L445.36 18.61L447.53 18.61L446.45 15.93ZM454.92 21.24L454.92 21.24L455.70 19.49Q456.26 19.86 457.01 20.09Q457.75 20.32 458.47 20.32L458.47 20.32Q459.84 20.32 459.84 19.64L459.84 19.64Q459.84 19.28 459.45 19.11Q459.06 18.93 458.20 18.74L458.20 18.74Q457.25 18.53 456.61 18.30Q455.97 18.06 455.52 17.55Q455.07 17.03 455.07 16.16L455.07 16.16Q455.07 15.39 455.49 14.77Q455.90 14.15 456.74 13.79Q457.57 13.43 458.78 13.43L458.78 13.43Q459.61 13.43 460.41 13.62Q461.22 13.80 461.83 14.17L461.83 14.17L461.10 15.93Q459.90 15.28 458.77 15.28L458.77 15.28Q458.06 15.28 457.74 15.49Q457.42 15.70 457.42 16.04L457.42 16.04Q457.42 16.37 457.80 16.54Q458.18 16.71 459.03 16.89L459.03 16.89Q459.99 17.10 460.62 17.33Q461.25 17.56 461.72 18.07Q462.18 18.58 462.18 19.46L462.18 19.46Q462.18 20.21 461.76 20.83Q461.34 21.44 460.50 21.80Q459.66 22.17 458.46 22.17L458.46 22.17Q457.44 22.17 456.48 21.92Q455.52 21.67 454.92 21.24ZM473.50 22L466.76 22L466.76 13.60L473.35 13.60L473.35 15.44L469.11 15.44L469.11 16.85L472.84 16.85L472.84 18.63L469.11 18.63L469.11 20.17L473.50 20.17L473.50 22ZM477.72 21.24L477.72 21.24L478.50 19.49Q479.06 19.86 479.80 20.09Q480.55 20.32 481.27 20.32L481.27 20.32Q482.63 20.32 482.64 19.64L482.64 19.64Q482.64 19.28 482.25 19.11Q481.86 18.93 480.99 18.74L480.99 18.74Q480.04 18.53 479.41 18.30Q478.77 18.06 478.32 17.55Q477.87 17.03 477.87 16.16L477.87 16.16Q477.87 15.39 478.28 14.77Q478.70 14.15 479.54 13.79Q480.37 13.43 481.58 13.43L481.58 13.43Q482.41 13.43 483.21 13.62Q484.02 13.80 484.63 14.17L484.63 14.17L483.90 15.93Q482.70 15.28 481.57 15.28L481.57 15.28Q480.86 15.28 480.54 15.49Q480.21 15.70 480.21 16.04L480.21 16.04Q480.21 16.37 480.60 16.54Q480.98 16.71 481.83 16.89L481.83 16.89Q482.79 17.10 483.42 17.33Q484.05 17.56 484.52 18.07Q484.98 18.58 484.98 19.46L484.98 19.46Q484.98 20.21 484.56 20.83Q484.14 21.44 483.30 21.80Q482.46 22.17 481.26 22.17L481.26 22.17Q480.24 22.17 479.28 21.92Q478.32 21.67 477.72 21.24Z" fill="#FFFFFF" x="287.39"/></svg>